<svg width="42" height="63" viewBox="0 0 42 63" fill="none" xmlns="http://www.w3.org/2000/svg">
<path fill-rule="evenodd" clip-rule="evenodd" d="M21 0.833313C32.2758 0.833313 41.4167 9.97416 41.4167 21.25C41.4167 24.6593 40.5834 27.8717 39.104 30.6983L21 62.0833L3.3154 31.4595C1.57499 28.4541 0.583328 24.9692 0.583328 21.25C0.583328 9.97416 9.72418 0.833313 21 0.833313ZM21 6.66665C12.9458 6.66665 6.41666 13.1958 6.41666 21.25C6.41666 23.566 6.95094 25.7882 7.962 27.7943L8.45198 28.6892L21 50.4166L33.6366 28.5362C34.9071 26.3423 35.5833 23.8555 35.5833 21.25C35.5833 13.1958 29.0541 6.66665 21 6.66665ZM21 12.5C25.8325 12.5 29.75 16.4175 29.75 21.25C29.75 26.0825 25.8325 30 21 30C16.1675 30 12.25 26.0825 12.25 21.25C12.25 16.4175 16.1675 12.5 21 12.5ZM21 18.3333C19.3892 18.3333 18.0833 19.6391 18.0833 21.25C18.0833 22.8608 19.3892 24.1666 21 24.1666C22.6108 24.1666 23.9167 22.8608 23.9167 21.25C23.9167 19.6391 22.6108 18.3333 21 18.3333Z" fill="#C0B7E8"/>
</svg>
